<svg aria-hidden="true" style="position: absolute; width: 0; height: 0; overflow: hidden;" version="1.1" xmlns="http://www.w3.org/2000/svg" xmlns:xlink="http://www.w3.org/1999/xlink">
<defs>

<symbol id="icon-" viewBox="0 0 32 32"></symbol>

<symbol id="icon-lang" viewBox="0 0 32 32">
<path fill="#8b6c47" style="fill: var(--color1, #8b6c47)" d="M0 16c0 2.101 0.414 4.182 1.218 6.123s1.983 3.705 3.468 5.191 3.25 2.664 5.191 3.468c1.941 0.804 4.022 1.218 6.123 1.218s4.182-0.414 6.123-1.218c1.941-0.804 3.705-1.983 5.191-3.468s2.664-3.25 3.468-5.191c0.804-1.941 1.218-4.022 1.218-6.123 0-4.243-1.686-8.313-4.686-11.314s-7.070-4.686-11.314-4.686c-4.243 0-8.313 1.686-11.314 4.686s-4.686 7.070-4.686 11.314zM30.118 16c0 3.744-1.487 7.335-4.135 9.983s-6.238 4.135-9.983 4.135c-3.744 0-7.335-1.487-9.983-4.135s-4.135-6.238-4.135-9.983c0-3.744 1.487-7.335 4.135-9.983s6.239-4.135 9.983-4.135c3.744 0 7.335 1.487 9.983 4.135s4.135 6.239 4.135 9.983z"></path>
<path fill="#8b6c47" style="fill: var(--color1, #8b6c47)" d="M9.412 16c0 8.275 2.714 15.059 6.588 15.059s6.588-6.784 6.588-15.059c0-8.275-2.714-15.059-6.588-15.059s-6.588 6.784-6.588 15.059zM20.706 16c0 7.32-2.344 13.176-4.706 13.176s-4.706-5.856-4.706-13.176c0-7.32 2.344-13.176 4.706-13.176s4.706 5.856 4.706 13.176z"></path>
<path fill="#8b6c47" style="fill: var(--color1, #8b6c47)" d="M4.207 7.176l1.261-1.397c0.201 0.181 0.416 0.357 0.646 0.529 2.481 1.86 6.396 2.993 10.664 2.993 3.639 0 7.034-0.823 9.515-2.24 0.572-0.324 1.112-0.7 1.613-1.124l1.224 1.431c-0.562 0.481-1.196 0.922-1.901 1.325-2.78 1.591-6.498 2.49-10.451 2.49-4.649 0-8.964-1.248-11.793-3.369-0.269-0.202-0.528-0.413-0.777-0.638zM4.207 24.848l1.261 1.393c0.201-0.182 0.416-0.358 0.646-0.527 2.481-1.86 6.396-2.993 10.664-2.993 3.639 0 7.034 0.821 9.515 2.24 0.605 0.348 1.143 0.722 1.613 1.122l1.224-1.431c-0.591-0.5-1.228-0.944-1.901-1.325-2.78-1.589-6.498-2.488-10.451-2.488-4.649 0-8.964 1.248-11.793 3.368-0.276 0.207-0.535 0.422-0.777 0.642zM0.941 16.942v-1.882h30.118v1.882h-30.118z"></path>
</symbol>

<symbol id="icon-mail" viewBox="0 0 32 32">
<path fill="none" stroke="#918e8e" style="stroke: var(--color2, #918e8e)" stroke-linejoin="round" stroke-linecap="round" stroke-miterlimit="4" stroke-width="1.8" d="M22.566 0.9v3.334h3.334M22.566 0.9l3.334 3.334M22.566 0.9h-15c-0.442 0-0.866 0.176-1.178 0.488s-0.488 0.736-0.488 1.178v11.667l9.083 6.050c0.272 0.18 0.591 0.275 0.917 0.275s0.645-0.096 0.917-0.275l9.083-6.051v-9.999"></path>
<path fill="none" stroke="#8b6c47" style="stroke: var(--color1, #8b6c47)" stroke-linejoin="round" stroke-linecap="round" stroke-miterlimit="4" stroke-width="1.8" d="M16.818 20.284l11.5-7.718c0.251-0.165 0.541-0.259 0.841-0.273s0.598 0.054 0.863 0.196c0.265 0.142 0.486 0.352 0.641 0.61s0.237 0.552 0.238 0.852v15.283c0 0.442-0.175 0.866-0.488 1.178s-0.736 0.488-1.178 0.488h-26.667c-0.442 0-0.866-0.176-1.178-0.488s-0.488-0.736-0.488-1.178v-15.217c-0.011-0.306 0.063-0.609 0.213-0.876s0.37-0.487 0.637-0.637c0.267-0.15 0.57-0.223 0.876-0.212s0.603 0.106 0.858 0.274l11.499 7.65c0.265 0.19 0.581 0.297 0.907 0.309s0.648-0.072 0.927-0.242z"></path>
</symbol>

<symbol id="icon-location" viewBox="0 0 27 32">
<path fill="none" stroke="#8b6c47" style="stroke: var(--color1, #8b6c47)" stroke-linejoin="round" stroke-linecap="round" stroke-miterlimit="4" stroke-width="1.5" d="M14.183 30.45c-0.272 0.195-0.598 0.3-0.933 0.3s-0.661-0.105-0.933-0.3c-8.048-5.737-16.59-17.537-7.955-26.063 2.371-2.332 5.563-3.638 8.888-3.637 3.333 0 6.532 1.308 8.888 3.635 8.635 8.527 0.093 20.325-7.955 26.065z"></path>
<path fill="none" stroke="#8b6c47" style="stroke: var(--color1, #8b6c47)" stroke-linejoin="round" stroke-linecap="round" stroke-miterlimit="4" stroke-width="1.5" d="M13.249 15.753c0.884 0 1.732-0.351 2.357-0.976s0.976-1.473 0.976-2.357c0-0.884-0.351-1.732-0.976-2.357s-1.473-0.976-2.357-0.976c-0.884 0-1.732 0.351-2.357 0.976s-0.976 1.473-0.976 2.357c0 0.884 0.351 1.732 0.976 2.357s1.473 0.976 2.357 0.976z"></path>
</symbol>

<symbol id="icon-search" viewBox="0 0 32 32">
<path fill="none" stroke="#8b6c47" style="stroke: var(--color1, #8b6c47)" stroke-linejoin="round" stroke-linecap="round" stroke-miterlimit="4" stroke-width="2.3448" d="M24.884 24.933l5.664 5.664M28.759 14.966c0 3.658-1.453 7.166-4.040 9.753s-6.095 4.040-9.753 4.040c-3.658 0-7.167-1.453-9.753-4.040s-4.040-6.095-4.040-9.753c0-3.658 1.453-7.167 4.040-9.753s6.095-4.040 9.753-4.040c3.658 0 7.166 1.453 9.753 4.040s4.040 6.095 4.040 9.753z"></path>
</symbol>

</defs>
</svg>
