<svg aria-hidden="true" style="position: absolute; width: 0; height: 0; overflow: hidden;" version="1.1" xmlns="http://www.w3.org/2000/svg" xmlns:xlink="http://www.w3.org/1999/xlink">
<defs>

<symbol id="icon-" viewBox="0 0 32 32"></symbol>

<symbol id="icon-lang" viewBox="0 0 32 32">
<path fill="#8b6c47" style="fill: var(--color1, #8b6c47)" d="M0 16c0 2.101 0.414 4.182 1.218 6.123s1.983 3.705 3.468 5.191 3.25 2.664 5.191 3.468c1.941 0.804 4.022 1.218 6.123 1.218s4.182-0.414 6.123-1.218c1.941-0.804 3.705-1.983 5.191-3.468s2.664-3.25 3.468-5.191c0.804-1.941 1.218-4.022 1.218-6.123 0-4.243-1.686-8.313-4.686-11.314s-7.070-4.686-11.314-4.686c-4.243 0-8.313 1.686-11.314 4.686s-4.686 7.070-4.686 11.314zM30.118 16c0 3.744-1.487 7.335-4.135 9.983s-6.238 4.135-9.983 4.135c-3.744 0-7.335-1.487-9.983-4.135s-4.135-6.238-4.135-9.983c0-3.744 1.487-7.335 4.135-9.983s6.239-4.135 9.983-4.135c3.744 0 7.335 1.487 9.983 4.135s4.135 6.239 4.135 9.983z"></path>
<path fill="#8b6c47" style="fill: var(--color1, #8b6c47)" d="M9.412 16c0 8.275 2.714 15.059 6.588 15.059s6.588-6.784 6.588-15.059c0-8.275-2.714-15.059-6.588-15.059s-6.588 6.784-6.588 15.059zM20.706 16c0 7.32-2.344 13.176-4.706 13.176s-4.706-5.856-4.706-13.176c0-7.32 2.344-13.176 4.706-13.176s4.706 5.856 4.706 13.176z"></path>
<path fill="#8b6c47" style="fill: var(--color1, #8b6c47)" d="M4.207 7.176l1.261-1.397c0.201 0.181 0.416 0.357 0.646 0.529 2.481 1.86 6.396 2.993 10.664 2.993 3.639 0 7.034-0.823 9.515-2.24 0.572-0.324 1.112-0.7 1.613-1.124l1.224 1.431c-0.562 0.481-1.196 0.922-1.901 1.325-2.78 1.591-6.498 2.49-10.451 2.49-4.649 0-8.964-1.248-11.793-3.369-0.269-0.202-0.528-0.413-0.777-0.638zM4.207 24.848l1.261 1.393c0.201-0.182 0.416-0.358 0.646-0.527 2.481-1.86 6.396-2.993 10.664-2.993 3.639 0 7.034 0.821 9.515 2.24 0.605 0.348 1.143 0.722 1.613 1.122l1.224-1.431c-0.591-0.5-1.228-0.944-1.901-1.325-2.78-1.589-6.498-2.488-10.451-2.488-4.649 0-8.964 1.248-11.793 3.368-0.276 0.207-0.535 0.422-0.777 0.642zM0.941 16.942v-1.882h30.118v1.882h-30.118z"></path>
</symbol>

<symbol id="icon-mail" viewBox="0 0 32 32">
<path fill="none" stroke="#918e8e" style="stroke: var(--color2, #918e8e)" stroke-linejoin="round" stroke-linecap="round" stroke-miterlimit="4" stroke-width="1.8" d="M22.566 0.9v3.334h3.334M22.566 0.9l3.334 3.334M22.566 0.9h-15c-0.442 0-0.866 0.176-1.178 0.488s-0.488 0.736-0.488 1.178v11.667l9.083 6.050c0.272 0.18 0.591 0.275 0.917 0.275s0.645-0.096 0.917-0.275l9.083-6.051v-9.999"></path>
<path fill="none" stroke="#8b6c47" style="stroke: var(--color1, #8b6c47)" stroke-linejoin="round" stroke-linecap="round" stroke-miterlimit="4" stroke-width="1.8" d="M16.818 20.284l11.5-7.718c0.251-0.165 0.541-0.259 0.841-0.273s0.598 0.054 0.863 0.196c0.265 0.142 0.486 0.352 0.641 0.61s0.237 0.552 0.238 0.852v15.283c0 0.442-0.175 0.866-0.488 1.178s-0.736 0.488-1.178 0.488h-26.667c-0.442 0-0.866-0.176-1.178-0.488s-0.488-0.736-0.488-1.178v-15.217c-0.011-0.306 0.063-0.609 0.213-0.876s0.37-0.487 0.637-0.637c0.267-0.15 0.57-0.223 0.876-0.212s0.603 0.106 0.858 0.274l11.499 7.65c0.265 0.19 0.581 0.297 0.907 0.309s0.648-0.072 0.927-0.242z"></path>
</symbol>

<symbol id="icon-location" viewBox="0 0 27 32">
<path fill="none" stroke="#8b6c47" style="stroke: var(--color1, #8b6c47)" stroke-linejoin="round" stroke-linecap="round" stroke-miterlimit="4" stroke-width="1.5" d="M14.183 30.45c-0.272 0.195-0.598 0.3-0.933 0.3s-0.661-0.105-0.933-0.3c-8.048-5.737-16.59-17.537-7.955-26.063 2.371-2.332 5.563-3.638 8.888-3.637 3.333 0 6.532 1.308 8.888 3.635 8.635 8.527 0.093 20.325-7.955 26.065z"></path>
<path fill="none" stroke="#8b6c47" style="stroke: var(--color1, #8b6c47)" stroke-linejoin="round" stroke-linecap="round" stroke-miterlimit="4" stroke-width="1.5" d="M13.249 15.753c0.884 0 1.732-0.351 2.357-0.976s0.976-1.473 0.976-2.357c0-0.884-0.351-1.732-0.976-2.357s-1.473-0.976-2.357-0.976c-0.884 0-1.732 0.351-2.357 0.976s-0.976 1.473-0.976 2.357c0 0.884 0.351 1.732 0.976 2.357s1.473 0.976 2.357 0.976z"></path>
</symbol>

<symbol id="icon-search" viewBox="0 0 32 32">
<path fill="none" stroke="#8b6c47" style="stroke: var(--color1, #8b6c47)" stroke-linejoin="round" stroke-linecap="round" stroke-miterlimit="4" stroke-width="2.3448" d="M24.884 24.933l5.664 5.664M28.759 14.966c0 3.658-1.453 7.166-4.040 9.753s-6.095 4.040-9.753 4.040c-3.658 0-7.167-1.453-9.753-4.040s-4.040-6.095-4.040-9.753c0-3.658 1.453-7.167 4.040-9.753s6.095-4.040 9.753-4.040c3.658 0 7.166 1.453 9.753 4.040s4.040 6.095 4.040 9.753z"></path>
</symbol>

<symbol id="icon-crown" viewBox="0 0 36 32">
<path fill="#d9b47f" style="fill: var(--color1, #d9b47f)" d="M6.587 31.677c-0.28 0-0.515-0.095-0.705-0.285s-0.285-0.426-0.285-0.707c0-0.281 0.095-0.516 0.285-0.705s0.425-0.283 0.705-0.283h22.463c0.281 0 0.516 0.095 0.705 0.285s0.284 0.426 0.285 0.707c0.001 0.281-0.094 0.516-0.285 0.705s-0.426 0.283-0.705 0.283h-22.463zM8.125 25.967c-0.779 0-1.457-0.244-2.035-0.733s-0.949-1.109-1.113-1.861l-2.364-12.534c-0.066 0.026-0.14 0.041-0.222 0.044-0.083 0.004-0.158 0.006-0.224 0.006-0.622 0-1.138-0.211-1.55-0.634s-0.618-0.934-0.618-1.536c0-0.624 0.207-1.155 0.62-1.592 0.412-0.436 0.929-0.653 1.552-0.653s1.153 0.218 1.59 0.653c0.436 0.437 0.653 0.967 0.653 1.592 0 0.137-0.005 0.265-0.016 0.382s-0.050 0.234-0.117 0.348l5.464 2.2c0.253 0.102 0.508 0.115 0.762 0.040 0.253-0.076 0.469-0.229 0.645-0.457l5.349-7.246c-0.286-0.187-0.513-0.436-0.681-0.744-0.168-0.308-0.251-0.639-0.251-0.996 0-0.623 0.218-1.153 0.655-1.59 0.436-0.437 0.966-0.655 1.59-0.655 0.623 0 1.154 0.218 1.592 0.653s0.657 0.963 0.657 1.584c0 0.375-0.084 0.713-0.251 1.014-0.168 0.304-0.395 0.548-0.681 0.735l5.349 7.246c0.177 0.228 0.392 0.38 0.645 0.455 0.255 0.078 0.509 0.066 0.762-0.036l5.464-2.202c-0.036-0.106-0.067-0.221-0.093-0.346-0.026-0.127-0.040-0.255-0.040-0.384 0-0.624 0.206-1.155 0.618-1.592 0.412-0.436 0.929-0.653 1.552-0.653s1.153 0.218 1.59 0.653c0.437 0.437 0.655 0.967 0.655 1.592 0 0.599-0.219 1.111-0.657 1.534s-0.97 0.636-1.596 0.636c-0.050 0-0.107-0.008-0.17-0.024s-0.133-0.024-0.21-0.026l-2.344 12.532c-0.165 0.755-0.536 1.376-1.113 1.863s-1.255 0.731-2.035 0.733h-19.386zM8.163 23.987h19.311c0.28 0 0.534-0.089 0.762-0.267s0.368-0.407 0.418-0.685l2.237-11.198-4.257 1.675c-0.678 0.286-1.367 0.336-2.065 0.148s-1.267-0.59-1.707-1.208l-5.045-6.902-5.045 6.902c-0.439 0.618-1.008 1.020-1.707 1.208s-1.387 0.138-2.067-0.148l-4.257-1.675 2.239 11.198c0.050 0.279 0.189 0.507 0.418 0.685s0.482 0.267 0.762 0.267z"></path>
</symbol>

<symbol id="icon-backet" viewBox="0 0 40 32">
<path fill="#543426" style="fill: var(--color1, #543426)" d="M1.597 0c-0.424 0-0.83 0.167-1.13 0.463s-0.468 0.699-0.468 1.119c0 0.42 0.168 0.822 0.468 1.119s0.706 0.463 1.13 0.463h3.546l4.191 16.615c0.356 1.408 1.629 2.374 3.094 2.374h19.919c1.442 0 2.668-0.95 3.046-2.326l4.14-15.080h-3.345l-3.843 14.242h-19.919l-4.19-16.615c-0.173-0.682-0.572-1.286-1.133-1.716s-1.252-0.662-1.961-0.657h-3.546zM30.35 22.154c-2.628 0-4.792 2.144-4.792 4.747s2.165 4.747 4.792 4.747c2.628 0 4.792-2.144 4.792-4.747s-2.164-4.747-4.792-4.747zM15.974 22.154c-2.628 0-4.792 2.144-4.792 4.747s2.164 4.747 4.792 4.747c2.628 0 4.792-2.144 4.792-4.747s-2.164-4.747-4.792-4.747zM20.766 0v7.912h-4.792l6.389 6.33 6.39-6.33h-4.792v-7.912h-3.195zM15.974 25.319c0.901 0 1.597 0.69 1.597 1.582s-0.696 1.582-1.597 1.582c-0.901 0-1.597-0.69-1.597-1.582s0.696-1.582 1.597-1.582zM30.35 25.319c0.901 0 1.597 0.69 1.597 1.582s-0.696 1.582-1.597 1.582c-0.901 0-1.597-0.69-1.597-1.582s0.696-1.582 1.597-1.582z"></path>
</symbol>

</defs>
</svg>
