<svg width="49" height="39" viewBox="0 0 49 39" fill="none" xmlns="http://www.w3.org/2000/svg">
<path d="M1.94681 8.13306e-05C1.43048 8.13306e-05 0.935304 0.20327 0.570207 0.564947C0.20511 0.926624 0 1.41716 0 1.92865C0 2.44014 0.20511 2.93068 0.570207 3.29236C0.935304 3.65404 1.43048 3.85722 1.94681 3.85722H6.26872L11.3771 24.1072C11.8113 25.8237 13.3629 27.0001 15.1481 27.0001H39.4248C41.1828 27.0001 42.676 25.8429 43.1374 24.1651L48.1835 5.7858H44.1069L39.4229 23.1429H15.1462L10.0397 2.89294C9.82875 2.06217 9.34249 1.32555 8.65878 0.801044C7.97507 0.276541 7.13346 -0.00550209 6.26872 8.13306e-05H1.94681ZM36.9894 27.0001C33.7869 27.0001 31.1489 29.6133 31.1489 32.7858C31.1489 35.9583 33.7869 38.5715 36.9894 38.5715C40.1919 38.5715 42.8298 35.9583 42.8298 32.7858C42.8298 29.6133 40.1919 27.0001 36.9894 27.0001ZM19.4681 27.0001C16.2656 27.0001 13.6277 29.6133 13.6277 32.7858C13.6277 35.9583 16.2656 38.5715 19.4681 38.5715C22.6706 38.5715 25.3085 35.9583 25.3085 32.7858C25.3085 29.6133 22.6706 27.0001 19.4681 27.0001ZM25.3085 8.13306e-05V9.64294H19.4681L27.2553 17.3572L35.0426 9.64294H29.2021V8.13306e-05H25.3085ZM19.4681 30.8572C20.5661 30.8572 21.4149 31.6981 21.4149 32.7858C21.4149 33.8735 20.5661 34.7144 19.4681 34.7144C18.3701 34.7144 17.5213 33.8735 17.5213 32.7858C17.5213 31.6981 18.3701 30.8572 19.4681 30.8572ZM36.9894 30.8572C38.0874 30.8572 38.9362 31.6981 38.9362 32.7858C38.9362 33.8735 38.0874 34.7144 36.9894 34.7144C35.8914 34.7144 35.0426 33.8735 35.0426 32.7858C35.0426 31.6981 35.8914 30.8572 36.9894 30.8572Z" fill="#543426"/>
</svg>
