<svg width="37" height="33" viewBox="0 0 37 33" fill="none" xmlns="http://www.w3.org/2000/svg">
<path d="M6.79263 32.6667C6.50407 32.6667 6.26179 32.5687 6.06579 32.3727C5.86979 32.1767 5.77179 31.9337 5.77179 31.6438C5.77179 31.3539 5.86979 31.1116 6.06579 30.917C6.26179 30.7223 6.50407 30.625 6.79263 30.625H29.9574C30.2473 30.625 30.4896 30.723 30.6842 30.919C30.8788 31.115 30.9768 31.358 30.9782 31.6479C30.9796 31.9378 30.8816 32.1801 30.6842 32.3747C30.4868 32.5693 30.2446 32.6667 29.9574 32.6667H6.79263ZM8.379 26.7785C7.57594 26.7785 6.87633 26.5267 6.28017 26.0231C5.684 25.5195 5.30153 24.8798 5.13275 24.1039L2.695 11.1781C2.62694 11.2053 2.55072 11.2203 2.46633 11.223C2.38058 11.2271 2.30368 11.2292 2.23562 11.2292C1.59454 11.2292 1.06167 11.0114 0.637 10.5758C0.212333 10.1403 0 9.61217 0 8.9915C0 8.34769 0.213014 7.80053 0.639042 7.35C1.06371 6.90083 1.59726 6.67625 2.23971 6.67625C2.88215 6.67625 3.42864 6.90083 3.87917 7.35C4.32833 7.80053 4.55292 8.34769 4.55292 8.9915C4.55292 9.13306 4.54747 9.2644 4.53658 9.38554C4.52569 9.50668 4.48554 9.62646 4.41613 9.74487L10.0511 12.0132C10.3125 12.118 10.5745 12.1316 10.8372 12.054C11.0985 11.9751 11.3204 11.8178 11.5028 11.5824L17.0193 4.10988C16.724 3.9166 16.4899 3.66071 16.317 3.34221C16.1441 3.02507 16.0577 2.68275 16.0577 2.31525C16.0577 1.67281 16.283 1.12632 16.7335 0.675792C17.1827 0.225264 17.7292 0 18.373 0C19.0154 0 19.5626 0.224583 20.0145 0.67375C20.4663 1.12292 20.6923 1.66736 20.6923 2.30708C20.6923 2.69364 20.6059 3.04208 20.433 3.35242C20.2601 3.66547 20.026 3.91796 19.7307 4.10988L25.2473 11.5824C25.4296 11.8178 25.6515 11.9744 25.9128 12.052C26.1755 12.1323 26.4375 12.12 26.6989 12.0152L32.3339 9.74487C32.2971 9.63599 32.2651 9.51689 32.2379 9.38758C32.2107 9.25692 32.1971 9.12489 32.1971 8.9915C32.1971 8.34769 32.4094 7.80053 32.8341 7.35C33.2588 6.90083 33.7923 6.67625 34.4347 6.67625C35.0772 6.67625 35.6237 6.90083 36.0742 7.35C36.5247 7.80053 36.75 8.34769 36.75 8.9915C36.75 9.60944 36.5241 10.1369 36.0722 10.5738C35.6203 11.0107 35.0718 11.2292 34.4266 11.2292C34.3749 11.2292 34.3163 11.221 34.251 11.2047C34.1857 11.1883 34.1135 11.1795 34.0346 11.1781L31.6173 24.1019C31.4471 24.8804 31.0646 25.5208 30.4698 26.0231C29.875 26.5253 29.1754 26.7771 28.371 26.7785H8.379ZM8.41779 24.7368H28.3322C28.6208 24.7368 28.8828 24.645 29.1182 24.4612C29.3537 24.2775 29.4973 24.042 29.549 23.7548L31.8561 12.2071L27.4665 13.9344C26.7669 14.2297 26.0571 14.2808 25.3371 14.0875C24.6171 13.8942 24.0304 13.4791 23.5772 12.8421L18.375 5.72483L13.1728 12.8421C12.7196 13.4791 12.1329 13.8942 11.4129 14.0875C10.6929 14.2808 9.98239 14.2297 9.28142 13.9344L4.89183 12.2071L7.20096 23.7548C7.25268 24.042 7.39628 24.2775 7.63175 24.4612C7.86722 24.645 8.12924 24.7368 8.41779 24.7368Z" fill="#D9B47F"/>
</svg>
