<svg width="40" height="40" viewBox="0 0 40 40" fill="none" xmlns="http://www.w3.org/2000/svg">
<circle cx="20" cy="20" r="19.5" fill="white" stroke="#543426"/>
<path d="M17.329 29.0274V21.7534H14.545C14.4005 21.7534 14.2618 21.696 14.1596 21.5938C14.0574 21.4916 14 21.353 14 21.2084V18.3314C14 18.1869 14.0574 18.0482 14.1596 17.946C14.2618 17.8438 14.4005 17.7864 14.545 17.7864H17.318V15.0014C17.2517 14.341 17.3307 13.674 17.5496 13.0474C17.7686 12.4207 18.122 11.8496 18.5852 11.3742C19.0484 10.8987 19.61 10.5304 20.2307 10.2952C20.8514 10.0599 21.516 9.9634 22.178 10.0124H24.498C24.6439 10.0121 24.7841 10.0692 24.8883 10.1714C24.9925 10.2735 25.0524 10.4125 25.055 10.5584V12.9944C25.0519 13.1401 24.9918 13.2787 24.8877 13.3805C24.7836 13.4824 24.6437 13.5394 24.498 13.5394H23.048C21.482 13.5394 21.181 14.2814 21.181 15.3724V17.7854H24.904C24.9814 17.7829 25.0584 17.7972 25.1297 17.8274C25.2009 17.8576 25.2648 17.903 25.3168 17.9604C25.3687 18.0178 25.4076 18.0858 25.4306 18.1597C25.4536 18.2336 25.4602 18.3117 25.45 18.3884L25.113 21.2764C25.0961 21.4087 25.0313 21.5302 24.9309 21.6179C24.8305 21.7056 24.7013 21.7535 24.568 21.7524H21.204V29.0264C21.2059 29.1549 21.182 29.2825 21.1336 29.4016C21.0853 29.5207 21.0135 29.6289 20.9226 29.7197C20.8316 29.8105 20.7234 29.8822 20.6043 29.9304C20.4851 29.9786 20.3575 30.0024 20.229 30.0004H18.292C18.1645 30.0008 18.0382 29.9758 17.9204 29.9269C17.8027 29.878 17.6959 29.8061 17.6062 29.7154C17.5166 29.6247 17.4459 29.5171 17.3983 29.3988C17.3507 29.2805 17.3271 29.1549 17.329 29.0274Z" fill="#543426"/>
</svg>
