<svg width="40" height="40" viewBox="0 0 40 40" fill="none" xmlns="http://www.w3.org/2000/svg">
<circle cx="20" cy="20" r="19.5" fill="white" stroke="#543426"/>
<path d="M24.2363 14.7168C24.2363 14.4364 24.3479 14.1674 24.5465 13.9691C24.7452 13.7708 25.0146 13.6594 25.2955 13.6594C25.5764 13.6594 25.8458 13.7708 26.0444 13.9691C26.2431 14.1674 26.3547 14.4364 26.3547 14.7168C26.3547 14.9972 26.2431 15.2662 26.0444 15.4645C25.8458 15.6628 25.5764 15.7742 25.2955 15.7742C25.0146 15.7742 24.7452 15.6628 24.5465 15.4645C24.3479 15.2662 24.2363 14.9972 24.2363 14.7168Z" fill="#543426"/>
<path fill-rule="evenodd" clip-rule="evenodd" d="M19.9998 14.9812C18.6655 14.9812 17.3858 15.5104 16.4423 16.4523C15.4988 17.3942 14.9688 18.6717 14.9688 20.0037C14.9688 21.3358 15.4988 22.6133 16.4423 23.5552C17.3858 24.4971 18.6655 25.0263 19.9998 25.0263C21.3341 25.0263 22.6137 24.4971 23.5572 23.5552C24.5007 22.6133 25.0308 21.3358 25.0308 20.0037C25.0308 18.6717 24.5007 17.3942 23.5572 16.4523C22.6137 15.5104 21.3341 14.9812 19.9998 14.9812ZM16.5575 20.0037C16.5575 19.0923 16.9202 18.2182 17.5657 17.5738C18.2113 16.9293 19.0868 16.5673 19.9998 16.5673C20.9127 16.5673 21.7883 16.9293 22.4338 17.5738C23.0794 18.2182 23.4421 19.0923 23.4421 20.0037C23.4421 20.9151 23.0794 21.7892 22.4338 22.4337C21.7883 23.0782 20.9127 23.4402 19.9998 23.4402C19.0868 23.4402 18.2113 23.0782 17.5657 22.4337C16.9202 21.7892 16.5575 20.9151 16.5575 20.0037Z" fill="#543426"/>
<path fill-rule="evenodd" clip-rule="evenodd" d="M25.5691 10.3074C21.8677 9.89755 18.1323 9.89755 14.4309 10.3074C12.2999 10.5453 10.5787 12.2212 10.3288 14.3592C9.89041 18.1072 9.89041 21.8934 10.3288 25.6414C10.5787 27.7794 12.2988 29.4554 14.4309 29.6933C18.1323 30.1022 21.8677 30.1022 25.5691 29.6933C27.7001 29.4554 29.4213 27.7794 29.6712 25.6414C30.1096 21.8934 30.1096 18.1072 29.6712 14.3592C29.4213 12.2212 27.7012 10.5453 25.5691 10.3074ZM14.6067 11.8829C18.1913 11.486 21.8087 11.486 25.3933 11.8829C26.8019 12.0415 27.93 13.1506 28.0941 14.5443C28.519 18.1693 28.519 21.8314 28.0941 25.4564C28.0092 26.1384 27.6964 26.772 27.2064 27.2547C26.7163 27.7374 26.0775 28.0411 25.3933 28.1167C21.8087 28.5136 18.1913 28.5136 14.6067 28.1167C13.9225 28.0411 13.2837 27.7374 12.7936 27.2547C12.3035 26.772 11.9908 26.1384 11.9059 25.4564C11.481 21.8314 11.481 18.1693 11.9059 14.5443C11.9908 13.8622 12.3035 13.2287 12.7936 12.7459C13.2837 12.2632 13.9225 11.9585 14.6067 11.8829Z" fill="#543426"/>
</svg>
