<svg width="34" height="34" viewBox="0 0 34 34" fill="none" xmlns="http://www.w3.org/2000/svg">
<path fill-rule="evenodd" clip-rule="evenodd" d="M0 17C-3.32664e-08 19.2325 0.439718 21.4431 1.29405 23.5056C2.14838 25.5682 3.40059 27.4422 4.97918 29.0208C6.55778 30.5994 8.43185 31.8516 10.4944 32.706C12.5569 33.5603 14.7675 34 17 34C19.2325 34 21.4431 33.5603 23.5056 32.706C25.5682 31.8516 27.4422 30.5994 29.0208 29.0208C30.5994 27.4422 31.8516 25.5682 32.706 23.5056C33.5603 21.4431 34 19.2325 34 17C34 12.4913 32.2089 8.1673 29.0208 4.97919C25.8327 1.79107 21.5087 0 17 0C12.4913 0 8.1673 1.79107 4.97918 4.97919C1.79107 8.1673 6.71846e-08 12.4913 0 17ZM32 17C32 20.9782 30.4196 24.7936 27.6066 27.6066C24.7936 30.4196 20.9782 32 17 32C13.0218 32 9.20644 30.4196 6.3934 27.6066C3.58035 24.7936 2 20.9782 2 17C2 13.0218 3.58035 9.20644 6.3934 6.3934C9.20644 3.58035 13.0218 2 17 2C20.9782 2 24.7936 3.58035 27.6066 6.3934C30.4196 9.20644 32 13.0218 32 17Z" fill="#8B6C47"/>
<path fill-rule="evenodd" clip-rule="evenodd" d="M10 17C10 25.792 12.884 33 17 33C21.116 33 24 25.792 24 17C24 8.208 21.116 1 17 1C12.884 1 10 8.208 10 17ZM22 17C22 24.778 19.51 31 17 31C14.49 31 12 24.778 12 17C12 9.222 14.49 3 17 3C19.51 3 22 9.222 22 17Z" fill="#8B6C47"/>
<path d="M4.47 7.62462L5.81 6.14062C6.02333 6.33263 6.252 6.51996 6.496 6.70262C9.132 8.67862 13.292 9.88262 17.826 9.88262C21.692 9.88262 25.3 9.00862 27.936 7.50262C28.5433 7.15889 29.1171 6.75915 29.65 6.30862L30.95 7.82862C30.3527 8.33929 29.6793 8.80862 28.93 9.23662C25.976 10.9266 22.026 11.8826 17.826 11.8826C12.886 11.8826 8.302 10.5566 5.296 8.30262C5.01069 8.08835 4.73509 7.86346 4.47 7.62462ZM4.47 26.4006L5.81 27.8806C6.02333 27.6873 6.252 27.5006 6.496 27.3206C9.132 25.3446 13.292 24.1406 17.826 24.1406C21.692 24.1406 25.3 25.0126 27.936 26.5206C28.5787 26.89 29.15 27.2873 29.65 27.7126L30.95 26.1926C30.322 25.6614 29.6457 25.19 28.93 24.7846C25.976 23.0966 22.026 22.1406 17.826 22.1406C12.886 22.1406 8.302 23.4666 5.296 25.7186C5.00267 25.9386 4.72733 26.1673 4.47 26.4006ZM1 18.0006V16.0006H33V18.0006H1Z" fill="#8B6C47"/>
</svg>
