<svg width="27" height="32" viewBox="0 0 27 32" fill="none" xmlns="http://www.w3.org/2000/svg">
<path d="M14.183 30.45C13.911 30.6453 13.5845 30.7504 13.2496 30.7504C12.9148 30.7504 12.5883 30.6453 12.3163 30.45C4.26797 24.7133 -4.2737 12.9133 4.3613 4.38667C6.73187 2.05475 9.92436 0.74854 13.2496 0.750001C16.583 0.750001 19.7813 2.05833 22.138 4.385C30.773 12.9117 22.2313 24.71 14.183 30.45Z" stroke="#8B6C47" stroke-width="1.5" stroke-linecap="round" stroke-linejoin="round"/>
<path d="M13.2493 15.7526C14.1334 15.7526 14.9812 15.4014 15.6064 14.7763C16.2315 14.1512 16.5827 13.3033 16.5827 12.4193C16.5827 11.5352 16.2315 10.6874 15.6064 10.0622C14.9812 9.43713 14.1334 9.08594 13.2493 9.08594C12.3653 9.08594 11.5174 9.43713 10.8923 10.0622C10.2672 10.6874 9.91602 11.5352 9.91602 12.4193C9.91602 13.3033 10.2672 14.1512 10.8923 14.7763C11.5174 15.4014 12.3653 15.7526 13.2493 15.7526Z" stroke="#8B6C47" stroke-width="1.5" stroke-linecap="round" stroke-linejoin="round"/>
</svg>
