<svg width="32" height="32" viewBox="0 0 32 32" fill="none" xmlns="http://www.w3.org/2000/svg">
<path d="M22.5663 0.900391V4.23399H25.8999M22.5663 0.900391L25.8999 4.23399M22.5663 0.900391H7.5663C7.12435 0.900391 6.70049 1.07596 6.38798 1.38847C6.07547 1.70098 5.8999 2.12483 5.8999 2.56679V14.234L14.9831 20.2844C15.2551 20.464 15.5739 20.5597 15.8999 20.5597C16.2259 20.5597 16.5447 20.464 16.8167 20.2844L25.8999 14.2332V4.23399" stroke="#918E8E" stroke-width="1.8" stroke-linecap="round" stroke-linejoin="round"/>
<path d="M16.8177 20.284L28.3177 12.5664C28.5684 12.4012 28.8591 12.3069 29.159 12.2932C29.4589 12.2796 29.7569 12.3473 30.0215 12.4891C30.2861 12.6308 30.5076 12.8415 30.6624 13.0987C30.8171 13.3559 30.8996 13.6502 30.9009 13.9504V29.2336C30.9009 29.6756 30.7254 30.0994 30.4129 30.4119C30.1003 30.7244 29.6765 30.9 29.2345 30.9H2.56733C2.12538 30.9 1.70152 30.7244 1.38901 30.4119C1.0765 30.0994 0.900932 29.6756 0.900932 29.2336V14.0168C0.890178 13.711 0.963811 13.4081 1.11376 13.1413C1.26372 12.8745 1.4842 12.6542 1.75106 12.5044C2.01793 12.3546 2.32087 12.2811 2.6267 12.2921C2.93253 12.303 3.22945 12.3979 3.48493 12.5664L14.9841 20.2168C15.2496 20.4064 15.5649 20.5138 15.891 20.5256C16.217 20.5374 16.5392 20.4539 16.8177 20.284Z" stroke="#8B6C47" stroke-width="1.8" stroke-linecap="round" stroke-linejoin="round"/>
</svg>
