<svg width="40" height="40" viewBox="0 0 40 40" fill="none" xmlns="http://www.w3.org/2000/svg">
<circle cx="20" cy="20" r="19.5" fill="white" stroke="#543426"/>
<path fill-rule="evenodd" clip-rule="evenodd" d="M15.1033 13.1965C18.4388 12.9345 21.7898 12.9345 25.1253 13.1965L27.3653 13.3725C27.972 13.4198 28.5454 13.6688 28.9941 14.0798C29.4429 14.4908 29.7411 15.0403 29.8413 15.6405C30.3583 18.7305 30.3583 21.8835 29.8413 24.9725C29.7411 25.5725 29.443 26.1218 28.9945 26.5328C28.546 26.9439 27.9728 27.193 27.3663 27.2405L25.1263 27.4155C21.7904 27.6775 18.4392 27.6775 15.1033 27.4155L12.8633 27.2405C12.2566 27.1932 11.6832 26.9442 11.2345 26.5331C10.7858 26.1221 10.4875 25.5727 10.3873 24.9725C9.8709 21.8832 9.8709 18.7297 10.3873 15.6405C10.4875 15.0404 10.7856 14.4911 11.2341 14.0801C11.6826 13.6691 12.2558 13.42 12.8623 13.3725L15.1033 13.1965ZM18.1143 22.7765V17.8365C18.1144 17.7835 18.1285 17.7314 18.1553 17.6856C18.182 17.6399 18.2204 17.602 18.2665 17.5759C18.3127 17.5497 18.3649 17.5363 18.4179 17.537C18.4709 17.5376 18.5228 17.5523 18.5683 17.5795L22.6853 20.0495C22.7296 20.0762 22.7663 20.1138 22.7917 20.1589C22.8172 20.2039 22.8305 20.2548 22.8305 20.3065C22.8305 20.3582 22.8172 20.409 22.7917 20.4541C22.7663 20.4991 22.7296 20.5368 22.6853 20.5635L18.5683 23.0335C18.5228 23.0607 18.4709 23.0754 18.4179 23.076C18.3649 23.0766 18.3127 23.0632 18.2665 23.0371C18.2204 23.011 18.182 22.9731 18.1553 22.9273C18.1285 22.8815 18.1144 22.8295 18.1143 22.7765Z" fill="#543426"/>
</svg>
